<svg width="72" height="72" viewBox="0 0 72 72" fill="none" xmlns="http://www.w3.org/2000/svg">
<path d="M59.64 55.41C60.96 53.31 61.74 50.88 61.74 48.24C61.74 40.77 55.71 34.74 48.24 34.74C40.77 34.74 34.74 40.77 34.74 48.24C34.74 55.71 40.77 61.74 48.21 61.74C50.85 61.74 53.31 60.96 55.38 59.64L64.74 69L69 64.74L59.64 55.41ZM48.24 55.74C44.1 55.74 40.74 52.38 40.74 48.24C40.74 44.1 44.1 40.74 48.24 40.74C52.38 40.74 55.74 44.1 55.74 48.24C55.74 52.38 52.38 55.74 48.24 55.74ZM47.16 30.24C44.94 30.3 42.81 30.78 40.86 31.59L39.21 29.1L27.81 47.64L18.78 37.08L7.89 54.51L3 51L18 27L27 37.5L39 18L47.16 30.24ZM54.93 31.74C53.01 30.9 50.94 30.39 48.78 30.27L64.14 6L69 9.54L54.93 31.74Z" fill="url(#paint0_linear_40_387)"/>
<defs>
<linearGradient id="paint0_linear_40_387" x1="1.416" y1="17.4052" x2="16.4741" y2="79.8147" gradientUnits="userSpaceOnUse">
<stop stop-color="#9F9DAD"/>
<stop offset="0.401042" stop-color="#FF5C5C"/>
<stop offset="1" stop-color="#343138"/>
</linearGradient>
</defs>
</svg>
