<svg width="72" height="72" viewBox="0 0 72 72" fill="none" xmlns="http://www.w3.org/2000/svg">
<path fill-rule="evenodd" clip-rule="evenodd" d="M30.755 5.39406C25.3356 6.15816 14.6373 10.8 18.2959 10.8C19.5667 10.8 22.5155 11.9788 23.85 13.0203C25.1356 14.0236 25.2 14.0375 25.2 13.3092C25.2 12.1284 27.0999 10.44 28.4287 10.44C29.7981 10.44 31.32 11.8314 31.32 13.0837C31.32 13.8132 31.5459 14.0004 32.67 14.2016C36.1928 14.8327 43.4976 19.3417 44.1067 21.2612C44.3542 22.0408 48.132 24.12 49.3008 24.12C50.2391 24.12 49.8802 25.1386 48.0395 27.7007C46.3416 30.0641 45.9652 30.24 42.604 30.24H39.8009L42.0532 32.5127L44.3056 34.7852L43.558 35.4618C42.8607 36.0929 42.5754 36.1093 39.3153 35.7057C33.7072 35.0114 27 35.1932 27 36.0396C27 36.3467 34.3753 48.5366 34.8685 49.0448C35.0098 49.1904 37.6051 47.8417 40.6357 46.0478C43.6664 44.2537 46.185 42.8386 46.2325 42.903C46.2802 42.9673 48.4063 46.4625 50.9571 50.67C53.5081 54.8775 55.7901 58.32 56.0284 58.32C56.7636 58.32 60.8004 52.9828 62.2561 50.0864C71.1488 32.3926 61.6808 11.1247 42.698 6.15258C39.4861 5.31144 33.8715 4.95486 30.755 5.39406ZM34.7658 20.0057C34.1023 20.669 34.0665 21.0377 34.5726 21.9836C35.2559 23.2603 37.44 22.6586 37.44 21.1937C37.44 20.4514 36.5056 19.44 35.82 19.44C35.5513 19.44 35.0768 19.6945 34.7658 20.0057ZM20.092 37.9373C15.6901 39.8592 11.932 42.3016 7.61401 46.0465C4.09663 49.0972 13.7464 60.6076 23.0308 64.4362C32.4814 68.3332 45.8667 66.9829 52.2623 61.4869L53.2246 60.66L49.2864 54.18C47.1202 50.616 45.2049 47.6514 45.0299 47.592C44.8549 47.5326 42.3196 48.9429 39.3961 50.7263C36.4725 52.5096 33.9558 53.8916 33.8033 53.7973C33.6508 53.7032 31.2217 49.8222 28.4053 45.173C25.589 40.5239 23.1891 36.722 23.0722 36.7243C22.9556 36.7268 21.6144 37.2726 20.092 37.9373Z" fill="url(#paint0_linear_141_164)"/>
<defs>
<linearGradient id="paint0_linear_141_164" x1="5.46317" y1="16.3318" x2="21.387" y2="76.5512" gradientUnits="userSpaceOnUse">
<stop stop-color="#9F9DAD"/>
<stop offset="0.401042" stop-color="#FF5C5C"/>
<stop offset="1" stop-color="#343138"/>
</linearGradient>
</defs>
</svg>
