<svg width="72" height="72" viewBox="0 0 72 72" fill="none" xmlns="http://www.w3.org/2000/svg">
<path d="M35.4 32.7C28.59 30.93 26.4 29.1 26.4 26.25C26.4 22.98 29.43 20.7 34.5 20.7C39.84 20.7 41.82 23.25 42 27H48.63C48.42 21.84 45.27 17.1 39 15.57V9H30V15.48C24.18 16.74 19.5 20.52 19.5 26.31C19.5 33.24 25.23 36.69 33.6 38.7C41.1 40.5 42.6 43.14 42.6 45.93C42.6 48 41.13 51.3 34.5 51.3C28.32 51.3 25.89 48.54 25.56 45H18.96C19.32 51.57 24.24 55.26 30 56.49V63H39V56.55C44.85 55.44 49.5 52.05 49.5 45.9C49.5 37.38 42.21 34.47 35.4 32.7Z" fill="url(#paint0_linear_40_383)"/>
<defs>
<linearGradient id="paint0_linear_40_383" x1="18.227" y1="18.7759" x2="39.315" y2="65.9589" gradientUnits="userSpaceOnUse">
<stop stop-color="#9F9DAD"/>
<stop offset="0.401042" stop-color="#FF5C5C"/>
<stop offset="1" stop-color="#343138"/>
</linearGradient>
</defs>
</svg>
